<svg width="1080" height="811" viewBox="0 0 1080 811" fill="none" xmlns="http://www.w3.org/2000/svg">
<path d="M1045.63 17.7091C1004.06 -14.0958 944.014 -0.973343 919.519 45.2711L684.122 489.686L684.119 489.682C662.733 519.261 629.112 538.326 591.303 538.326C555.31 538.326 523.114 521.05 501.654 493.874L469.468 437.698C469.272 437.349 469.075 437 468.879 436.651C452.872 408.187 435.726 377.698 416.766 353.702C392.114 322.506 363.789 297.564 324.05 285.978C284.312 274.393 241.631 274.897 202.223 287.418C183.574 293.343 166.118 301.813 150.382 312.458L44.3711 373.88C2.19265 398.318 -12.2936 452.382 12.0151 494.635C36.3238 536.888 90.2223 551.33 132.401 526.892L191.442 492.684C207.747 484.721 226.043 480.256 245.374 480.256C287.909 480.256 325.439 501.874 347.751 534.812L476.536 741.585C476.68 741.816 476.825 742.046 476.971 742.275C482.955 752.823 490.331 762.542 498.92 771.161C511.506 783.792 526.448 793.811 542.892 800.647C559.337 807.482 576.962 811.001 594.762 811.001C612.561 811.001 630.187 807.482 646.631 800.647C663.076 793.811 678.018 783.792 690.604 771.161C695.596 766.151 700.178 760.77 704.316 755.071C708.313 750.91 711.874 746.2 714.882 740.97L1067.7 127.702C1088.97 90.7324 1079.52 43.6339 1045.63 17.7091Z" fill="#1E8449"/>
</svg>
