<svg width="1080" height="811" viewBox="0 0 1080 811" fill="none" xmlns="http://www.w3.org/2000/svg">
<path fill-rule="evenodd" clip-rule="evenodd" d="M1045.63 17.7089C1004.06 -14.0961 944.013 -0.973589 919.518 45.2709L684.121 489.686L684.118 489.681C662.732 519.26 629.111 538.325 591.301 538.325C555.31 538.325 523.114 521.05 501.654 493.875L469.459 437.685L468.878 436.65L468.877 436.65C452.871 408.187 435.725 377.697 416.765 353.702C401.9 334.891 385.7 318.354 366.468 305.649C365.428 267.146 338.934 234.994 303.204 225.412L303.067 180.531L347.286 178.012C358.492 177.373 367.268 168.084 367.268 156.862V154.554C367.268 141.546 356.723 131.032 343.714 131.072L302.916 131.197L302.834 104.491C302.792 90.7661 292.577 79.1697 278.962 77.3911C262.217 75.2035 247.559 88.5616 248.191 105.432L249.163 131.362L213.549 131.471C199.477 131.514 187.753 142.336 186.582 156.364C185.217 172.727 198.614 186.483 215.006 185.549L251.118 183.492L252.76 227.274C225.27 236.89 204.188 260.15 197.633 288.935C180.708 294.754 164.824 302.688 150.386 312.454L44.3701 373.879C2.19167 398.317 -12.2946 452.381 12.0141 494.634C36.3228 536.887 90.2213 551.329 132.4 526.891L191.433 492.688C207.739 484.722 226.039 480.256 245.373 480.256C287.911 480.256 325.442 501.877 347.754 534.817L476.535 741.584C476.679 741.816 476.824 742.046 476.97 742.275C482.954 752.823 490.331 762.542 498.919 771.16C511.505 783.791 526.447 793.81 542.891 800.646C559.336 807.482 576.961 811 594.761 811C612.56 811 630.186 807.482 646.63 800.646C663.075 793.81 678.017 783.791 690.603 771.16C695.595 766.151 700.177 760.77 704.314 755.071C708.311 750.911 711.872 746.2 714.881 740.97L1067.7 127.702C1088.97 90.7322 1079.52 43.6337 1045.63 17.7089Z" fill="black"/>
</svg>
