<svg width="1764" height="1525" viewBox="0 0 1764 1525" fill="none" xmlns="http://www.w3.org/2000/svg">
<path d="M983.542 753.638C983.542 766.293 981.083 778.823 976.307 790.514C971.53 802.206 964.53 812.828 955.704 821.776C946.878 830.724 936.401 837.822 924.869 842.665C913.338 847.508 900.979 850 888.497 850C876.016 850 863.657 847.508 852.126 842.665C840.594 837.822 830.117 830.724 821.291 821.776C812.465 812.828 805.464 802.206 800.688 790.514C795.912 778.823 793.453 766.293 793.453 753.638L888.497 753.638H983.542Z" fill="#DDA853"/>
<path d="M1116.37 307.25C1133.47 274.643 1175.52 265.49 1204.68 288.029V288.029C1228.44 306.386 1235.11 339.625 1220.28 365.671L972.598 800.62C958.682 825.056 927.727 833.35 903.458 819.144V819.144C879.784 805.286 871.119 775.035 883.862 750.73L892.418 734.411L1116.37 307.25Z" fill="#DDA853"/>
<path d="M829.619 693.463C829.619 688.707 831.892 684.237 835.735 681.435V681.435C842.929 676.19 853.089 678.391 857.466 686.144L866.667 702.439L867.035 703.085C876.437 719.576 900.335 719.21 909.227 702.439V702.439L918.011 686.051C922.053 678.512 931.929 676.462 938.637 681.77V681.77C941.929 684.375 943.849 688.342 943.849 692.54V741.138C943.849 763.229 925.94 781.138 903.849 781.138H869.619C847.528 781.138 829.619 763.229 829.619 741.138V693.463Z" fill="#DDA853"/>
<path fill-rule="evenodd" clip-rule="evenodd" d="M749.352 609.978C753.718 596.903 755.965 582.89 755.965 568.738H669.08L582.195 568.738C582.195 582.89 584.443 596.903 588.809 609.978C591.077 616.769 593.894 623.238 597.208 629.29C610.61 620.675 626.484 615.69 643.5 615.69C674.893 615.69 702.397 632.656 717.665 658.08C722.267 654.23 726.573 649.832 730.517 644.939C738.585 634.932 744.985 623.053 749.352 609.978Z" fill="#DDA853"/>
<path d="M564.556 648.568C534.828 665.97 496.91 655.81 479.864 625.877V625.877C462.819 595.944 473.1 557.571 502.828 540.17L590.405 488.906C620.133 471.505 658.051 481.664 675.096 511.597V511.597C692.142 541.531 681.861 579.903 652.133 597.304L564.556 648.568Z" fill="#DDA853"/>
<path fill-rule="evenodd" clip-rule="evenodd" d="M623.055 504.728L805.725 801.035C820.127 824.397 850.327 831.921 874.022 818.051C898.282 803.85 906.698 772.551 892.83 748.098L790.743 568.094C779.674 548.576 758.721 536.987 736.418 538.047C708.218 539.387 683.056 520.608 676.082 493.018L671.923 476.561L623.055 504.728Z" fill="#DDA853"/>
<path fill-rule="evenodd" clip-rule="evenodd" d="M951.156 622.368C936.159 643.323 912.584 656.829 886.071 656.829C859.815 656.829 836.44 643.584 821.425 622.976C810.797 637.678 804.479 656.083 804.479 676.057C804.479 724.213 841.206 763.252 886.512 763.252C931.818 763.252 968.546 724.213 968.546 676.057C968.546 655.807 962.051 637.169 951.156 622.368Z" fill="#DDA853"/>
<path d="M810.128 602.404C796.104 578.015 780.969 548.137 763.683 526.036C746.397 503.936 726.535 486.266 698.669 478.059C670.803 469.851 640.875 470.209 613.241 479.079C585.607 487.949 561.709 504.869 545.027 527.375L657.612 600.935L810.128 602.404Z" fill="#DDA853"/>
<path d="M374.371 1108.56C361.4 1108.56 349.539 1106.34 338.787 1101.9C328.035 1097.47 318.734 1091.15 310.883 1082.96C303.032 1074.6 296.888 1064.78 292.451 1053.52C288.184 1042.09 286.051 1029.63 286.051 1016.14C286.051 1003.17 288.355 991.141 292.963 980.048C297.571 968.955 303.971 959.227 312.163 950.864C320.355 942.501 329.912 936.016 340.835 931.408C351.758 926.8 363.619 924.496 376.419 924.496C385.123 924.496 393.571 925.776 401.763 928.336C409.955 930.896 417.464 934.48 424.291 939.088C431.118 943.525 436.835 948.731 441.443 954.704L420.195 978C415.758 973.392 411.15 969.552 406.371 966.48C401.763 963.237 396.899 960.848 391.779 959.312C386.83 957.605 381.71 956.752 376.419 956.752C368.568 956.752 361.144 958.203 354.147 961.104C347.32 964.005 341.347 968.101 336.227 973.392C331.278 978.683 327.352 984.997 324.451 992.336C321.55 999.504 320.099 1007.53 320.099 1016.4C320.099 1025.45 321.464 1033.64 324.195 1040.98C327.096 1048.31 331.107 1054.63 336.227 1059.92C341.518 1065.21 347.747 1069.31 354.915 1072.21C362.254 1074.94 370.275 1076.3 378.979 1076.3C384.611 1076.3 390.072 1075.54 395.363 1074C400.654 1072.46 405.518 1070.33 409.955 1067.6C414.563 1064.7 418.744 1061.37 422.499 1057.62L438.883 1083.98C434.787 1088.59 429.326 1092.77 422.499 1096.53C415.672 1100.28 407.992 1103.27 399.459 1105.49C391.096 1107.54 382.734 1108.56 374.371 1108.56ZM595.451 1108.56C584.358 1108.56 574.288 1105.49 565.243 1099.34C556.198 1093.2 548.944 1084.84 543.483 1074.26C538.022 1063.67 535.291 1051.64 535.291 1038.16C535.291 1024.68 538.022 1012.65 543.483 1002.06C548.944 991.483 556.368 983.205 565.755 977.232C575.142 971.259 585.723 968.272 597.499 968.272C604.326 968.272 610.555 969.296 616.187 971.344C621.819 973.221 626.768 975.952 631.035 979.536C635.302 983.12 638.8 987.216 641.531 991.824C644.432 996.432 646.395 1001.38 647.419 1006.67L640.507 1004.88V971.088H672.251V1106H640.251V1073.74L647.675 1072.46C646.48 1077.07 644.262 1081.59 641.019 1086.03C637.947 1090.3 634.022 1094.14 629.243 1097.55C624.635 1100.79 619.43 1103.44 613.627 1105.49C607.995 1107.54 601.936 1108.56 595.451 1108.56ZM604.155 1080.66C611.494 1080.66 617.979 1078.86 623.611 1075.28C629.243 1071.7 633.595 1066.75 636.667 1060.43C639.91 1053.95 641.531 1046.52 641.531 1038.16C641.531 1029.97 639.91 1022.71 636.667 1016.4C633.595 1010.09 629.243 1005.14 623.611 1001.55C617.979 997.968 611.494 996.176 604.155 996.176C596.816 996.176 590.331 997.968 584.699 1001.55C579.238 1005.14 574.971 1010.09 571.899 1016.4C568.827 1022.71 567.291 1029.97 567.291 1038.16C567.291 1046.52 568.827 1053.95 571.899 1060.43C574.971 1066.75 579.238 1071.7 584.699 1075.28C590.331 1078.86 596.816 1080.66 604.155 1080.66ZM839.829 1108.56C827.882 1108.56 817.13 1105.57 807.573 1099.6C798.186 1093.46 790.677 1085.18 785.045 1074.77C779.584 1064.19 776.853 1052.07 776.853 1038.42C776.853 1024.93 779.584 1012.9 785.045 1002.32C790.506 991.739 797.93 983.461 807.317 977.488C816.874 971.344 827.626 968.272 839.573 968.272C846.058 968.272 852.288 969.296 858.261 971.344C864.405 973.392 869.866 976.208 874.645 979.792C879.424 983.205 883.178 987.045 885.909 991.312C888.81 995.579 890.432 1000.02 890.773 1004.62L882.325 1005.65V916.56H913.813V1106H883.349L882.581 1074.26L888.725 1074.77C888.554 1079.03 887.018 1083.13 884.117 1087.06C881.386 1090.98 877.802 1094.57 873.365 1097.81C868.928 1101.05 863.722 1103.7 857.749 1105.74C851.946 1107.62 845.973 1108.56 839.829 1108.56ZM845.973 1081.94C853.312 1081.94 859.797 1080.06 865.429 1076.3C871.061 1072.55 875.413 1067.43 878.485 1060.94C881.728 1054.46 883.349 1046.95 883.349 1038.42C883.349 1030.05 881.728 1022.63 878.485 1016.14C875.413 1009.49 871.061 1004.37 865.429 1000.78C859.797 997.029 853.312 995.152 845.973 995.152C838.634 995.152 832.149 997.029 826.517 1000.78C820.885 1004.37 816.448 1009.49 813.205 1016.14C810.133 1022.63 808.597 1030.05 808.597 1038.42C808.597 1046.95 810.133 1054.46 813.205 1060.94C816.448 1067.43 820.885 1072.55 826.517 1076.3C832.149 1080.06 838.634 1081.94 845.973 1081.94ZM1109.3 1108.56C1096.5 1108.56 1084.64 1106.26 1073.72 1101.65C1062.79 1097.04 1053.24 1090.64 1045.05 1082.45C1037.02 1074.09 1030.79 1064.27 1026.36 1053.01C1021.92 1041.74 1019.7 1029.46 1019.7 1016.14C1019.7 1002.83 1021.92 990.544 1026.36 979.28C1030.79 968.016 1037.02 958.288 1045.05 950.096C1053.24 941.733 1062.79 935.248 1073.72 930.64C1084.64 926.032 1096.5 923.728 1109.3 923.728C1122.27 923.728 1134.22 926.032 1145.14 930.64C1156.06 935.248 1165.54 941.733 1173.56 950.096C1181.58 958.459 1187.81 968.272 1192.25 979.536C1196.68 990.629 1198.9 1002.83 1198.9 1016.14C1198.9 1029.29 1196.68 1041.49 1192.25 1052.75C1187.81 1064.02 1181.58 1073.83 1173.56 1082.19C1165.54 1090.55 1156.06 1097.04 1145.14 1101.65C1134.22 1106.26 1122.27 1108.56 1109.3 1108.56ZM1109.3 1076.82C1117.49 1076.82 1124.92 1075.37 1131.57 1072.46C1138.4 1069.39 1144.29 1065.13 1149.24 1059.66C1154.19 1054.03 1158.03 1047.55 1160.76 1040.21C1163.66 1032.87 1165.11 1024.85 1165.11 1016.14C1165.11 1007.44 1163.66 999.419 1160.76 992.08C1158.03 984.741 1154.19 978.341 1149.24 972.88C1144.29 967.248 1138.4 962.981 1131.57 960.08C1124.92 957.008 1117.49 955.472 1109.3 955.472C1101.28 955.472 1093.86 957.008 1087.03 960.08C1080.2 962.981 1074.31 967.163 1069.37 972.624C1064.42 978.085 1060.58 984.485 1057.85 991.824C1055.11 999.163 1053.75 1007.27 1053.75 1016.14C1053.75 1024.85 1055.11 1032.95 1057.85 1040.46C1060.58 1047.8 1064.42 1054.2 1069.37 1059.66C1074.31 1065.13 1080.2 1069.39 1087.03 1072.46C1093.86 1075.37 1101.28 1076.82 1109.3 1076.82ZM1389.1 1108.56C1376.3 1108.56 1364.44 1106.26 1353.52 1101.65C1342.59 1097.04 1333.04 1090.64 1324.85 1082.45C1316.82 1074.09 1310.59 1064.27 1306.16 1053.01C1301.72 1041.74 1299.5 1029.46 1299.5 1016.14C1299.5 1002.83 1301.72 990.544 1306.16 979.28C1310.59 968.016 1316.82 958.288 1324.85 950.096C1333.04 941.733 1342.59 935.248 1353.52 930.64C1364.44 926.032 1376.3 923.728 1389.1 923.728C1402.07 923.728 1414.02 926.032 1424.94 930.64C1435.86 935.248 1445.34 941.733 1453.36 950.096C1461.38 958.459 1467.61 968.272 1472.05 979.536C1476.48 990.629 1478.7 1002.83 1478.7 1016.14C1478.7 1029.29 1476.48 1041.49 1472.05 1052.75C1467.61 1064.02 1461.38 1073.83 1453.36 1082.19C1445.34 1090.55 1435.86 1097.04 1424.94 1101.65C1414.02 1106.26 1402.07 1108.56 1389.1 1108.56ZM1389.1 1076.82C1397.29 1076.82 1404.72 1075.37 1411.37 1072.46C1418.2 1069.39 1424.09 1065.13 1429.04 1059.66C1433.99 1054.03 1437.83 1047.55 1440.56 1040.21C1443.46 1032.87 1444.91 1024.85 1444.91 1016.14C1444.91 1007.44 1443.46 999.419 1440.56 992.08C1437.83 984.741 1433.99 978.341 1429.04 972.88C1424.09 967.248 1418.2 962.981 1411.37 960.08C1404.72 957.008 1397.29 955.472 1389.1 955.472C1381.08 955.472 1373.66 957.008 1366.83 960.08C1360 962.981 1354.11 967.163 1349.17 972.624C1344.22 978.085 1340.38 984.485 1337.65 991.824C1334.91 999.163 1333.55 1007.27 1333.55 1016.14C1333.55 1024.85 1334.91 1032.95 1337.65 1040.46C1340.38 1047.8 1344.22 1054.2 1349.17 1059.66C1354.11 1065.13 1360 1069.39 1366.83 1072.46C1373.66 1075.37 1381.08 1076.82 1389.1 1076.82Z" fill="#D78C15"/>
</svg>
