<svg width="1079" height="811" viewBox="0 0 1079 811" fill="none" xmlns="http://www.w3.org/2000/svg">
<path d="M1045.41 17.4503C1003.83 -14.3546 943.789 -1.23213 919.294 45.0124L683.897 489.427L683.894 489.423C662.508 519.002 628.888 538.067 591.078 538.067C555.086 538.067 522.89 520.791 501.43 493.615L469.243 437.439C469.047 437.091 468.851 436.741 468.654 436.392C452.648 407.929 435.502 377.439 416.541 353.444C391.89 322.247 363.565 297.305 323.826 285.72C284.087 274.134 241.407 274.639 201.998 287.159C183.349 293.084 165.894 301.554 150.157 312.199L44.1465 373.621C1.96804 398.059 -12.5183 452.123 11.7905 494.376C36.0992 536.629 89.9976 551.071 132.176 526.633L191.218 492.425C207.522 484.462 225.819 479.997 245.149 479.997C287.685 479.997 325.214 501.615 347.527 534.553L476.311 741.326C476.455 741.557 476.6 741.787 476.746 742.016C482.73 752.564 490.107 762.283 498.695 770.902C511.281 783.533 526.223 793.552 542.668 800.388C559.112 807.223 576.738 810.742 594.537 810.742C612.337 810.742 629.962 807.223 646.407 800.388C662.851 793.552 677.793 783.533 690.38 770.902C695.371 765.893 699.953 760.511 704.091 754.812C708.088 750.652 711.649 745.941 714.658 740.712L1067.48 127.443C1088.75 90.4736 1079.3 43.3751 1045.41 17.4503Z" fill="#133E87"/>
</svg>
