<svg width="1193" height="879" viewBox="0 0 1193 879" fill="none" xmlns="http://www.w3.org/2000/svg">
<path d="M824.421 31.9278C841.746 -0.519882 884.099 -9.80474 913.391 12.4234C937.281 30.5533 943.901 63.5771 928.847 89.5336L680.435 517.865C678.327 521.499 675.838 524.778 673.047 527.678C670.089 531.745 666.805 535.582 663.221 539.15C654.352 547.979 643.822 554.984 632.234 559.762C620.645 564.541 608.224 567 595.681 567C583.138 567 570.717 564.541 559.128 559.762C547.54 554.984 537.01 547.979 528.141 539.15C522.078 533.115 516.872 526.307 512.652 518.919C512.521 518.717 512.392 518.514 512.264 518.31L421.611 373.925C405.887 350.901 379.44 335.789 349.466 335.789C335.841 335.789 322.944 338.912 311.452 344.481L269.638 368.515C240.033 385.53 202.148 375.378 185.017 345.841C167.887 316.303 177.999 278.565 207.603 261.55L282.525 218.487C293.614 211.046 305.915 205.125 319.057 200.983C346.829 192.23 376.906 191.878 404.91 199.977C432.914 208.076 452.874 225.511 470.246 247.32C483.608 264.094 495.691 285.408 506.971 305.306L507.385 306.037L530.07 345.312C545.193 364.308 567.88 376.384 593.243 376.384C619.888 376.384 643.58 363.056 658.651 342.379L658.653 342.382L824.421 31.9278Z" fill="black"/>
<path d="M52.7868 871.904C63.5388 876.341 75.4001 878.56 88.3708 878.56C96.7335 878.56 105.096 877.536 113.459 875.488C121.992 873.269 129.672 870.283 136.499 866.528C143.325 862.773 148.787 858.592 152.883 853.984L136.499 827.616C132.744 831.371 128.563 834.699 123.955 837.6C119.517 840.331 114.653 842.464 109.363 844C104.072 845.536 98.6108 846.304 92.9788 846.304C84.2748 846.304 76.2534 844.939 68.9148 842.208C61.7468 839.307 55.5174 835.211 50.2268 829.92C45.1068 824.629 41.0961 818.315 38.1948 810.976C35.4641 803.637 34.0988 795.445 34.0988 786.4C34.0988 777.525 35.5494 769.504 38.4508 762.336C41.3521 754.997 45.2775 748.683 50.2268 743.392C55.3468 738.101 61.3201 734.005 68.1468 731.104C75.1441 728.203 82.5681 726.752 90.4188 726.752C95.7094 726.752 100.829 727.605 105.779 729.312C110.899 730.848 115.763 733.237 120.371 736.48C125.149 739.552 129.757 743.392 134.195 748L155.443 724.704C150.835 718.731 145.117 713.525 138.291 709.088C131.464 704.48 123.955 700.896 115.763 698.336C107.571 695.776 99.1228 694.496 90.4188 694.496C77.6188 694.496 65.7574 696.8 54.8348 701.408C43.9121 706.016 34.3548 712.501 26.1628 720.864C17.9708 729.227 11.5708 738.955 6.96278 750.048C2.35478 761.141 0.0507812 773.173 0.0507812 786.144C0.0507812 799.627 2.18411 812.085 6.45078 823.52C10.8881 834.784 17.0321 844.597 24.8828 852.96C32.7334 861.152 42.0348 867.467 52.7868 871.904Z" fill="black"/>
<path fill-rule="evenodd" clip-rule="evenodd" d="M279.243 869.344C288.288 875.488 298.357 878.56 309.451 878.56C315.936 878.56 321.995 877.536 327.627 875.488C333.429 873.44 338.635 870.795 343.243 867.552C347.632 864.417 351.301 860.922 354.251 857.067V876H386.251V741.088H354.507V760.175C351.943 756.233 348.786 752.687 345.035 749.536C340.768 745.952 335.819 743.221 330.187 741.344C324.555 739.296 318.325 738.272 311.499 738.272C299.723 738.272 289.141 741.259 279.755 747.232C270.368 753.205 262.944 761.483 257.483 772.064C252.021 782.645 249.291 794.677 249.291 808.16C249.291 821.643 252.021 833.675 257.483 844.256C262.944 854.837 270.197 863.2 279.243 869.344ZM337.611 845.28C331.979 848.864 325.493 850.656 318.155 850.656C310.816 850.656 304.331 848.864 298.699 845.28C293.237 841.696 288.971 836.747 285.899 830.432C282.827 823.947 281.291 816.523 281.291 808.16C281.291 799.968 282.827 792.715 285.899 786.4C288.971 780.085 293.237 775.136 298.699 771.552C304.331 767.968 310.816 766.176 318.155 766.176C325.493 766.176 331.979 767.968 337.611 771.552C343.243 775.136 347.595 780.085 350.667 786.4C353.909 792.715 355.531 799.968 355.531 808.16C355.531 816.523 353.909 823.947 350.667 830.432C347.595 836.747 343.243 841.696 337.611 845.28Z" fill="black"/>
<path fill-rule="evenodd" clip-rule="evenodd" d="M521.573 869.6C531.13 875.573 541.882 878.56 553.829 878.56C559.973 878.56 565.946 877.621 571.749 875.744C577.722 873.696 582.927 871.051 587.365 867.808C591.186 865.016 594.374 861.971 596.93 858.672L597.349 876H627.813V686.56H596.325V756.602C594.155 754.169 591.595 751.899 588.645 749.792C583.866 746.208 578.405 743.392 572.261 741.344C566.287 739.296 560.058 738.272 553.573 738.272C541.626 738.272 530.874 741.344 521.317 747.488C511.93 753.461 504.506 761.739 499.045 772.32C493.583 782.901 490.853 794.933 490.853 808.416C490.853 822.069 493.583 834.187 499.045 844.768C504.677 855.179 512.186 863.456 521.573 869.6ZM579.429 846.304C573.797 850.059 567.311 851.936 559.973 851.936C552.634 851.936 546.149 850.059 540.517 846.304C534.885 842.549 530.447 837.429 527.205 830.944C524.133 824.459 522.597 816.949 522.597 808.416C522.597 800.053 524.133 792.629 527.205 786.144C530.447 779.488 534.885 774.368 540.517 770.784C546.149 767.029 552.634 765.152 559.973 765.152C567.311 765.152 573.797 767.029 579.429 770.784C585.061 774.368 589.413 779.488 592.485 786.144C595.727 792.629 597.349 800.053 597.349 808.416C597.349 816.949 595.727 824.459 592.485 830.944C589.413 837.429 585.061 842.549 579.429 846.304Z" fill="black"/>
<path fill-rule="evenodd" clip-rule="evenodd" d="M787.717 871.648C798.639 876.256 810.501 878.56 823.301 878.56C836.271 878.56 848.218 876.256 859.141 871.648C870.063 867.04 879.535 860.555 887.557 852.192C895.578 843.829 901.807 834.016 906.245 822.752C910.682 811.488 912.901 799.285 912.901 786.144C912.901 772.832 910.682 760.629 906.245 749.536C901.807 738.272 895.578 728.459 887.557 720.096C879.535 711.733 870.063 705.248 859.141 700.64C848.218 696.032 836.271 693.728 823.301 693.728C810.501 693.728 798.639 696.032 787.717 700.64C776.794 705.248 767.237 711.733 759.045 720.096C751.023 728.288 744.794 738.016 740.357 749.28C735.919 760.544 733.701 772.832 733.701 786.144C733.701 799.456 735.919 811.744 740.357 823.008C744.794 834.272 751.023 844.085 759.045 852.448C767.237 860.64 776.794 867.04 787.717 871.648ZM845.573 842.464C838.917 845.365 831.493 846.816 823.301 846.816C815.279 846.816 807.855 845.365 801.029 842.464C794.202 839.392 788.314 835.125 783.365 829.664C778.415 824.203 774.576 817.803 771.845 810.464C769.114 802.955 767.749 794.848 767.749 786.144C767.749 777.269 769.114 769.163 771.845 761.824C774.576 754.485 778.415 748.085 783.365 742.624C788.314 737.163 794.202 732.981 801.029 730.08C807.855 727.008 815.279 725.472 823.301 725.472C831.493 725.472 838.917 727.008 845.573 730.08C852.399 732.981 858.287 737.248 863.237 742.88C868.186 748.341 872.026 754.741 874.757 762.08C877.658 769.419 879.109 777.44 879.109 786.144C879.109 794.848 877.658 802.869 874.757 810.208C872.026 817.547 868.186 824.032 863.237 829.664C858.287 835.125 852.399 839.392 845.573 842.464Z" fill="black"/>
<path fill-rule="evenodd" clip-rule="evenodd" d="M1067.52 871.648C1078.44 876.256 1090.3 878.56 1103.1 878.56C1116.07 878.56 1128.02 876.256 1138.94 871.648C1149.86 867.04 1159.34 860.555 1167.36 852.192C1175.38 843.829 1181.61 834.016 1186.04 822.752C1190.48 811.488 1192.7 799.285 1192.7 786.144C1192.7 772.832 1190.48 760.629 1186.04 749.536C1181.61 738.272 1175.38 728.459 1167.36 720.096C1159.34 711.733 1149.86 705.248 1138.94 700.64C1128.02 696.032 1116.07 693.728 1103.1 693.728C1090.3 693.728 1078.44 696.032 1067.52 700.64C1056.59 705.248 1047.04 711.733 1038.84 720.096C1030.82 728.288 1024.59 738.016 1020.16 749.28C1015.72 760.544 1013.5 772.832 1013.5 786.144C1013.5 799.456 1015.72 811.744 1020.16 823.008C1024.59 834.272 1030.82 844.085 1038.84 852.448C1047.04 860.64 1056.59 867.04 1067.52 871.648ZM1125.37 842.464C1118.72 845.365 1111.29 846.816 1103.1 846.816C1095.08 846.816 1087.66 845.365 1080.83 842.464C1074 839.392 1068.11 835.125 1063.16 829.664C1058.22 824.203 1054.38 817.803 1051.64 810.464C1048.91 802.955 1047.55 794.848 1047.55 786.144C1047.55 777.269 1048.91 769.163 1051.64 761.824C1054.38 754.485 1058.22 748.085 1063.16 742.624C1068.11 737.163 1074 732.981 1080.83 730.08C1087.66 727.008 1095.08 725.472 1103.1 725.472C1111.29 725.472 1118.72 727.008 1125.37 730.08C1132.2 732.981 1138.09 737.248 1143.04 742.88C1147.99 748.341 1151.83 754.741 1154.56 762.08C1157.46 769.419 1158.91 777.44 1158.91 786.144C1158.91 794.848 1157.46 802.869 1154.56 810.208C1151.83 817.547 1147.99 824.032 1143.04 829.664C1138.09 835.125 1132.2 839.392 1125.37 842.464Z" fill="black"/>
</svg>
